{
  "accessors": [
    {
      "bufferView": 2,
      "componentType": 5126,
      "count": 54,
      "max": [
        0.24555368721485138,
        0.08151038736104965,
        1.7622331380844116
      ],
      "min": [
        -0.3123980462551117,
        -0.11396914720535278,
        1.4672839641571045
      ],
      "type": "VEC3"
    },
    {
      "bufferView": 2,
      "byteOffset": 648,
      "componentType": 5126,
      "count": 54,
      "max": [
        0.9019247889518738,
        -0.22966332733631134,
        0.8858151435852051
      ],
      "min": [
        -0.9579969048500061,
        -0.99817955493927,
        -0.6159787774085999
      ],
      "type": "VEC3"
    },
    {
      "bufferView": 1,
      "componentType": 5126,
      "count": 54,
      "max": [
        0.2109380066394806,
        0.9150390028953552
      ],
      "min": [
        0.013183998875319958,
        0.12402302026748657
      ],
      "type": "VEC2"
    },
    {
      "bufferView": 0,
      "componentType": 5125,
      "count": 234,
      "type": "SCALAR"
    },
    {
      "bufferView": 2,
      "byteOffset": 1296,
      "componentType": 5126,
      "count": 1304,
      "max": [
        0.5721539258956909,
        1.3847177028656006,
        2.203914165496826
      ],
      "min": [
        -0.7250972390174866,
        -0.0740700215101242,
        0.3797030448913574
      ],
      "type": "VEC3"
    },
    {
      "bufferView": 2,
      "byteOffset": 16944,
      "componentType": 5126,
      "count": 1304,
      "max": [
        0.9990161061286926,
        0.9994033575057983,
        0.9997512698173523
      ],
      "min": [
        -0.9975346326828003,
        -0.9998124241828918,
        -0.9997211694717407
      ],
      "type": "VEC3"
    },
    {
      "bufferView": 1,
      "byteOffset": 432,
      "componentType": 5126,
      "count": 1304,
      "max": [
        1.9970699548721313,
        0.9951170086860657
      ],
      "min": [
        0.0029299999587237835,
        0.007812023162841797
      ],
      "type": "VEC2"
    },
    {
      "bufferView": 0,
      "byteOffset": 936,
      "componentType": 5125,
      "count": 4350,
      "type": "SCALAR"
    },
    {
      "bufferView": 2,
      "byteOffset": 32592,
      "componentType": 5126,
      "count": 2082,
      "max": [
        0.6748951077461243,
        0.40624651312828064,
        1.8229657411575317
      ],
      "min": [
        -0.7259148955345154,
        -0.3444054126739502,
        -0.010449429973959923
      ],
      "type": "VEC3"
    },
    {
      "bufferView": 2,
      "byteOffset": 57576,
      "componentType": 5126,
      "count": 2082,
      "max": [
        0.999647319316864,
        0.9963454604148865,
        0.9998477697372437
      ],
      "min": [
        -0.9988242983818054,
        -0.9998661279678345,
        -0.9999960660934448
      ],
      "type": "VEC3"
    },
    {
      "bufferView": 1,
      "byteOffset": 10864,
      "componentType": 5126,
      "count": 2082,
      "max": [
        1.9902340173721313,
        0.9941409826278687
      ],
      "min": [
        0.0029299999587237835,
        0.006835997104644775
      ],
      "type": "VEC2"
    },
    {
      "bufferView": 0,
      "byteOffset": 18336,
      "componentType": 5125,
      "count": 7080,
      "type": "SCALAR"
    }
  ],
  "asset": {
    "extras": {
      "author": "Guilherme Navarro (https://sketchfab.com/guinavarro.al)",
      "license": "CC-BY-4.0 (http://creativecommons.org/licenses/by/4.0/)",
      "source": "https://sketchfab.com/3d-models/boots-dora-829165e0fb5e4b138370e369c7fe49f5",
      "title": "Boots (Dora)"
    },
    "generator": "Sketchfab-16.16.0",
    "version": "2.0"
  },
  "bufferViews": [
    {
      "buffer": 0,
      "byteLength": 46656,
      "name": "floatBufferViews",
      "target": 34963
    },
    {
      "buffer": 0,
      "byteLength": 27520,
      "byteOffset": 46656,
      "byteStride": 8,
      "name": "floatBufferViews",
      "target": 34962
    },
    {
      "buffer": 0,
      "byteLength": 82560,
      "byteOffset": 74176,
      "byteStride": 12,
      "name": "floatBufferViews",
      "target": 34962
    }
  ],
  "buffers": [
    {
      "byteLength": 156736,
      "uri": "scene.bin"
    }
  ],
  "images": [
    {
      "uri": "textures/mesh_4_6.nr_baseColor.png"
    },
    {
      "uri": "textures/mesh_4_7.nr_baseColor.png"
    },
    {
      "uri": "textures/mesh_4_8.nr_baseColor.png"
    }
  ],
  "materials": [
    {
      "doubleSided": true,
      "name": "mesh_4_6.nr",
      "pbrMetallicRoughness": {
        "baseColorTexture": {
          "index": 0
        },
        "metallicFactor": 0.0
      }
    },
    {
      "doubleSided": true,
      "name": "mesh_4_7.nr",
      "pbrMetallicRoughness": {
        "baseColorTexture": {
          "index": 1
        },
        "metallicFactor": 0.0
      }
    },
    {
      "doubleSided": true,
      "name": "mesh_4_8.nr",
      "pbrMetallicRoughness": {
        "baseColorTexture": {
          "index": 2
        },
        "metallicFactor": 0.0
      }
    }
  ],
  "meshes": [
    {
      "name": "Object_0",
      "primitives": [
        {
          "attributes": {
            "NORMAL": 1,
            "POSITION": 0,
            "TEXCOORD_0": 2
          },
          "indices": 3,
          "material": 1,
          "mode": 4
        }
      ]
    },
    {
      "name": "Object_1",
      "primitives": [
        {
          "attributes": {
            "NORMAL": 5,
            "POSITION": 4,
            "TEXCOORD_0": 6
          },
          "indices": 7,
          "material": 2,
          "mode": 4
        }
      ]
    },
    {
      "name": "Object_2",
      "primitives": [
        {
          "attributes": {
            "NORMAL": 9,
            "POSITION": 8,
            "TEXCOORD_0": 10
          },
          "indices": 11,
          "material": 0,
          "mode": 4
        }
      ]
    }
  ],
  "nodes": [
    {
      "children": [
        1
      ],
      "matrix": [
        1.0,
        0.0,
        0.0,
        0.0,
        0.0,
        2.220446049250313e-16,
        -1.0,
        0.0,
        0.0,
        1.0,
        2.220446049250313e-16,
        0.0,
        0.0,
        0.0,
        0.0,
        1.0
      ],
      "name": "Sketchfab_model"
    },
    {
      "children": [
        2,
        3,
        4
      ],
      "name": "boots 1.obj.cleaner.materialmerger.gles"
    },
    {
      "mesh": 0,
      "name": "Object_2"
    },
    {
      "mesh": 1,
      "name": "Object_3"
    },
    {
      "mesh": 2,
      "name": "Object_4"
    }
  ],
  "samplers": [
    {
      "magFilter": 9729,
      "minFilter": 9987,
      "wrapS": 10497,
      "wrapT": 10497
    }
  ],
  "scene": 0,
  "scenes": [
    {
      "name": "Sketchfab_Scene",
      "nodes": [
        0
      ]
    }
  ],
  "textures": [
    {
      "sampler": 0,
      "source": 0
    },
    {
      "sampler": 0,
      "source": 1
    },
    {
      "sampler": 0,
      "source": 2
    }
  ]
}
