{
  "accessors": [
    {
      "bufferView": 2,
      "componentType": 5126,
      "count": 32,
      "max": [
        0.3812011480331421,
        -0.3518930673599243,
        2.627708673477173
      ],
      "min": [
        -0.4469504654407501,
        -0.4989490509033203,
        2.335836887359619
      ],
      "type": "VEC3"
    },
    {
      "bufferView": 2,
      "byteOffset": 384,
      "componentType": 5126,
      "count": 32,
      "max": [
        0.4928588569164276,
        -0.8658342957496643,
        0.23007160425186157
      ],
      "min": [
        -0.4222660958766937,
        -0.9921294450759888,
        -0.08665286004543304
      ],
      "type": "VEC3"
    },
    {
      "bufferView": 1,
      "componentType": 5126,
      "count": 32,
      "max": [
        0.2304690033197403,
        0.7382810115814209
      ],
      "min": [
        0.0148930000141263,
        0.13085901737213135
      ],
      "type": "VEC2"
    },
    {
      "bufferView": 0,
      "componentType": 5125,
      "count": 108,
      "type": "SCALAR"
    },
    {
      "bufferView": 2,
      "byteOffset": 768,
      "componentType": 5126,
      "count": 1036,
      "max": [
        0.7930731773376465,
        0.7106528282165527,
        3.2939112186431885
      ],
      "min": [
        -0.8472362160682678,
        -0.6104696393013,
        1.9410932064056396
      ],
      "type": "VEC3"
    },
    {
      "bufferView": 2,
      "byteOffset": 13200,
      "componentType": 5126,
      "count": 1036,
      "max": [
        0.9991908073425293,
        0.9998195767402649,
        0.9997379183769226
      ],
      "min": [
        -0.9990374445915222,
        -0.9995710253715515,
        -0.9998372197151184
      ],
      "type": "VEC3"
    },
    {
      "bufferView": 1,
      "byteOffset": 256,
      "componentType": 5126,
      "count": 1036,
      "max": [
        0.9960939884185791,
        0.9931640028953552
      ],
      "min": [
        0.0029299999587237835,
        0.0009769790340214968
      ],
      "type": "VEC2"
    },
    {
      "bufferView": 0,
      "byteOffset": 432,
      "componentType": 5125,
      "count": 4002,
      "type": "SCALAR"
    },
    {
      "bufferView": 2,
      "byteOffset": 25632,
      "componentType": 5126,
      "count": 2338,
      "max": [
        0.6997275352478027,
        0.2107732594013214,
        2.0820565223693848
      ],
      "min": [
        -0.7563158273696899,
        -0.3653511106967926,
        -0.03171997889876366
      ],
      "type": "VEC3"
    },
    {
      "bufferView": 2,
      "byteOffset": 53688,
      "componentType": 5126,
      "count": 2338,
      "max": [
        0.9999849796295166,
        0.999213457107544,
        0.9985402226448059
      ],
      "min": [
        -0.9999709725379944,
        -0.9999824166297913,
        -0.9998986124992371
      ],
      "type": "VEC3"
    },
    {
      "bufferView": 1,
      "byteOffset": 8544,
      "componentType": 5126,
      "count": 2338,
      "max": [
        0.9960939884185791,
        0.9794920086860657
      ],
      "min": [
        0.0029299999587237835,
        0.0107420077547431
      ],
      "type": "VEC2"
    },
    {
      "bufferView": 0,
      "byteOffset": 16440,
      "componentType": 5125,
      "count": 6546,
      "type": "SCALAR"
    }
  ],
  "asset": {
    "extras": {
      "author": "Guilherme Navarro (https://sketchfab.com/guinavarro.al)",
      "license": "CC-BY-4.0 (http://creativecommons.org/licenses/by/4.0/)",
      "source": "https://sketchfab.com/3d-models/dora-ea30afe9d5094dc9bf284b5364dd77bd",
      "title": "Dora"
    },
    "generator": "Sketchfab-16.16.0",
    "version": "2.0"
  },
  "bufferViews": [
    {
      "buffer": 0,
      "byteLength": 42624,
      "name": "floatBufferViews",
      "target": 34963
    },
    {
      "buffer": 0,
      "byteLength": 27248,
      "byteOffset": 42624,
      "byteStride": 8,
      "name": "floatBufferViews",
      "target": 34962
    },
    {
      "buffer": 0,
      "byteLength": 81744,
      "byteOffset": 69872,
      "byteStride": 12,
      "name": "floatBufferViews",
      "target": 34962
    }
  ],
  "buffers": [
    {
      "byteLength": 151616,
      "uri": "scene.bin"
    }
  ],
  "images": [
    {
      "uri": "textures/mesh_4_7.nr_baseColor.png"
    },
    {
      "uri": "textures/mesh_4_8.nr_baseColor.png"
    },
    {
      "uri": "textures/mesh_4_9.nr_baseColor.png"
    }
  ],
  "materials": [
    {
      "doubleSided": true,
      "name": "mesh_4_7.nr",
      "pbrMetallicRoughness": {
        "baseColorTexture": {
          "index": 0
        },
        "metallicFactor": 0.0
      }
    },
    {
      "doubleSided": true,
      "name": "mesh_4_8.nr",
      "pbrMetallicRoughness": {
        "baseColorTexture": {
          "index": 1
        },
        "metallicFactor": 0.0
      }
    },
    {
      "doubleSided": true,
      "name": "mesh_4_9.nr",
      "pbrMetallicRoughness": {
        "baseColorTexture": {
          "index": 2
        },
        "metallicFactor": 0.0
      }
    }
  ],
  "meshes": [
    {
      "name": "Object_0",
      "primitives": [
        {
          "attributes": {
            "NORMAL": 1,
            "POSITION": 0,
            "TEXCOORD_0": 2
          },
          "indices": 3,
          "material": 0,
          "mode": 4
        }
      ]
    },
    {
      "name": "Object_1",
      "primitives": [
        {
          "attributes": {
            "NORMAL": 5,
            "POSITION": 4,
            "TEXCOORD_0": 6
          },
          "indices": 7,
          "material": 1,
          "mode": 4
        }
      ]
    },
    {
      "name": "Object_2",
      "primitives": [
        {
          "attributes": {
            "NORMAL": 9,
            "POSITION": 8,
            "TEXCOORD_0": 10
          },
          "indices": 11,
          "material": 2,
          "mode": 4
        }
      ]
    }
  ],
  "nodes": [
    {
      "children": [
        1
      ],
      "matrix": [
        1.0,
        0.0,
        0.0,
        0.0,
        0.0,
        2.220446049250313e-16,
        -1.0,
        0.0,
        0.0,
        1.0,
        2.220446049250313e-16,
        0.0,
        0.0,
        0.0,
        0.0,
        1.0
      ],
      "name": "Sketchfab_model"
    },
    {
      "children": [
        2,
        3,
        4
      ],
      "name": "Dora.obj.cleaner.materialmerger.gles"
    },
    {
      "mesh": 0,
      "name": "Object_2"
    },
    {
      "mesh": 1,
      "name": "Object_3"
    },
    {
      "mesh": 2,
      "name": "Object_4"
    }
  ],
  "samplers": [
    {
      "magFilter": 9729,
      "minFilter": 9987,
      "wrapS": 10497,
      "wrapT": 10497
    }
  ],
  "scene": 0,
  "scenes": [
    {
      "name": "Sketchfab_Scene",
      "nodes": [
        0
      ]
    }
  ],
  "textures": [
    {
      "sampler": 0,
      "source": 0
    },
    {
      "sampler": 0,
      "source": 1
    },
    {
      "sampler": 0,
      "source": 2
    }
  ]
}
